# xmcd
# 
# Track frame offsets:
#     150
#     22287
#     43859
#     65997
# 
# Disc length: 1167
# 
# Revision: 1
# Processed by: cddbd v1.5.2PL0 Copyright (c) Steve Scherf et al.
# Submitted via: fre:ac v1.0.31
# 
DISCID=3d048d04
DTITLE=安月名莉子 - 慎重勇者ＴＵＥＥＥ -OP-
DYEAR=2019
DGENRE=Anime
TTITLE0=be perfect plz!
TTITLE1=さいしょからずっと
TTITLE2=be perfect plz! -Inst-
TTITLE3=さいしょからずっと Inst-
EXTD=
EXTT0=
EXTT1=
EXTT2=
EXTT3=
PLAYORDER=
